<svg width="64" height="64" viewBox="0 0 64 64" fill="none" xmlns="http://www.w3.org/2000/svg">
<rect width="64" height="64" rx="6" fill="white"/>
<path d="M37.1951 22.2439C38.9122 22.2439 40.3171 20.839 40.3171 19.122C40.3171 17.4049 38.9122 16 37.1951 16C35.478 16 34.0732 17.4049 34.0732 19.122C34.0732 20.839 35.478 22.2439 37.1951 22.2439ZM20.8049 32.3902C16.4341 32.3902 13 35.8244 13 40.1951C13 44.5659 16.4341 48 20.8049 48C25.1756 48 28.6098 44.5659 28.6098 40.1951C28.6098 35.8244 25.1756 32.3902 20.8049 32.3902ZM20.8049 45.6585C17.839 45.6585 15.3415 43.161 15.3415 40.1951C15.3415 37.2293 17.839 34.7317 20.8049 34.7317C23.7707 34.7317 26.2683 37.2293 26.2683 40.1951C26.2683 43.161 23.7707 45.6585 20.8049 45.6585ZM29.8585 30.0488L33.6049 26.3024L34.8537 27.5512C36.8829 29.5805 39.5366 30.8293 42.8146 30.8293V27.7073C40.4732 27.7073 38.6 26.7707 37.1951 25.3659L34.2293 22.4C33.4488 21.7756 32.6683 21.4634 31.7317 21.4634C30.7951 21.4634 30.0146 21.7756 29.5463 22.4L25.1756 26.7707C24.5512 27.3951 24.239 28.1756 24.239 28.9561C24.239 29.8927 24.5512 30.6732 25.1756 31.1415L30.1707 35.5122V43.3171H33.2927V33.639L29.8585 30.0488ZM42.6585 32.3902C38.2878 32.3902 34.8537 35.8244 34.8537 40.1951C34.8537 44.5659 38.2878 48 42.6585 48C47.0293 48 50.4634 44.5659 50.4634 40.1951C50.4634 35.8244 47.0293 32.3902 42.6585 32.3902ZM42.6585 45.6585C39.6927 45.6585 37.1951 43.161 37.1951 40.1951C37.1951 37.2293 39.6927 34.7317 42.6585 34.7317C45.6244 34.7317 48.1219 37.2293 48.1219 40.1951C48.1219 43.161 45.6244 45.6585 42.6585 45.6585Z" fill="#FF0101"/>
</svg>
